<mxfile host="app.diagrams.net" modified="2022-10-20T17:15:01.168Z" agent="5.0 (Windows NT 10.0; Win64; x64) AppleWebKit/537.36 (KHTML, like Gecko) Chrome/106.0.0.0 Safari/537.36" etag="d2VPrpK2DfNYQDOVLSFx" version="20.4.1" type="github">
  <diagram id="9oRhc1r4mWf8eJZ34Zwf" name="Page-1">
    <mxGraphModel dx="3752" dy="1392" grid="1" gridSize="10" guides="1" tooltips="1" connect="1" arrows="1" fold="1" page="1" pageScale="1" pageWidth="1169" pageHeight="827" math="0" shadow="0">
      <root>
        <mxCell id="0" />
        <mxCell id="1" parent="0" />
        <mxCell id="lge93pLNkwrm1VapkDIt-30" style="edgeStyle=orthogonalEdgeStyle;rounded=0;orthogonalLoop=1;jettySize=auto;html=1;strokeColor=#000000;entryX=1;entryY=0.5;entryDx=0;entryDy=0;strokeWidth=2;" edge="1" parent="1" source="lge93pLNkwrm1VapkDIt-1" target="lge93pLNkwrm1VapkDIt-55">
          <mxGeometry relative="1" as="geometry">
            <mxPoint x="336" y="211.5" as="targetPoint" />
          </mxGeometry>
        </mxCell>
        <mxCell id="lge93pLNkwrm1VapkDIt-1" value="" style="sketch=0;outlineConnect=0;fontColor=#232F3E;gradientColor=none;fillColor=#68B92E;strokeColor=none;dashed=0;verticalLabelPosition=bottom;verticalAlign=top;align=center;html=1;fontSize=12;fontStyle=0;aspect=fixed;pointerEvents=1;shape=mxgraph.aws4.rds_postgresql_instance;" vertex="1" parent="1">
          <mxGeometry x="421" y="172.5" width="78" height="78" as="geometry" />
        </mxCell>
        <mxCell id="lge93pLNkwrm1VapkDIt-2" value="" style="sketch=0;outlineConnect=0;fontColor=#232F3E;gradientColor=none;fillColor=#68B92E;strokeColor=none;dashed=0;verticalLabelPosition=bottom;verticalAlign=top;align=center;html=1;fontSize=12;fontStyle=0;aspect=fixed;pointerEvents=1;shape=mxgraph.aws4.rds_postgresql_instance;" vertex="1" parent="1">
          <mxGeometry x="91" y="172.28" width="78" height="78" as="geometry" />
        </mxCell>
        <mxCell id="lge93pLNkwrm1VapkDIt-13" style="edgeStyle=orthogonalEdgeStyle;rounded=0;orthogonalLoop=1;jettySize=auto;html=1;exitX=0.5;exitY=1;exitDx=0;exitDy=0;exitPerimeter=0;entryX=0.75;entryY=1;entryDx=0;entryDy=0;strokeWidth=2;" edge="1" parent="1" source="lge93pLNkwrm1VapkDIt-24" target="lge93pLNkwrm1VapkDIt-21">
          <mxGeometry relative="1" as="geometry">
            <mxPoint x="320" y="710" as="sourcePoint" />
            <mxPoint x="320" y="640" as="targetPoint" />
          </mxGeometry>
        </mxCell>
        <mxCell id="lge93pLNkwrm1VapkDIt-35" style="edgeStyle=orthogonalEdgeStyle;rounded=0;orthogonalLoop=1;jettySize=auto;html=1;strokeColor=#000000;entryX=0;entryY=0.5;entryDx=0;entryDy=0;entryPerimeter=0;strokeWidth=2;" edge="1" parent="1" source="lge93pLNkwrm1VapkDIt-8" target="lge93pLNkwrm1VapkDIt-24">
          <mxGeometry relative="1" as="geometry">
            <mxPoint x="320" y="780" as="targetPoint" />
          </mxGeometry>
        </mxCell>
        <mxCell id="lge93pLNkwrm1VapkDIt-8" value="users" style="sketch=0;outlineConnect=0;gradientColor=none;fontColor=#545B64;strokeColor=none;fillColor=#68B92E;dashed=0;verticalLabelPosition=bottom;verticalAlign=top;align=center;html=1;fontSize=12;fontStyle=0;aspect=fixed;shape=mxgraph.aws4.illustration_users;pointerEvents=1;strokeWidth=1;" vertex="1" parent="1">
          <mxGeometry x="-220" y="1210" width="100" height="100" as="geometry" />
        </mxCell>
        <mxCell id="lge93pLNkwrm1VapkDIt-34" style="edgeStyle=orthogonalEdgeStyle;rounded=0;orthogonalLoop=1;jettySize=auto;html=1;strokeColor=#000000;strokeWidth=2;" edge="1" parent="1" source="lge93pLNkwrm1VapkDIt-9" target="lge93pLNkwrm1VapkDIt-24">
          <mxGeometry relative="1" as="geometry" />
        </mxCell>
        <mxCell id="lge93pLNkwrm1VapkDIt-9" value="" style="sketch=0;outlineConnect=0;fontColor=#232F3E;gradientColor=none;fillColor=#68B92E;strokeColor=none;dashed=0;verticalLabelPosition=bottom;verticalAlign=top;align=center;html=1;fontSize=12;fontStyle=0;aspect=fixed;pointerEvents=1;shape=mxgraph.aws4.traditional_server;" vertex="1" parent="1">
          <mxGeometry x="-198.84" y="1040" width="57.69" height="100" as="geometry" />
        </mxCell>
        <mxCell id="lge93pLNkwrm1VapkDIt-41" style="edgeStyle=orthogonalEdgeStyle;rounded=0;orthogonalLoop=1;jettySize=auto;html=1;entryX=0.75;entryY=1;entryDx=0;entryDy=0;strokeColor=#000000;strokeWidth=2;" edge="1" parent="1" source="lge93pLNkwrm1VapkDIt-24" target="lge93pLNkwrm1VapkDIt-37">
          <mxGeometry relative="1" as="geometry" />
        </mxCell>
        <mxCell id="lge93pLNkwrm1VapkDIt-24" value="" style="sketch=0;points=[[0,0,0],[0.25,0,0],[0.5,0,0],[0.75,0,0],[1,0,0],[0,1,0],[0.25,1,0],[0.5,1,0],[0.75,1,0],[1,1,0],[0,0.25,0],[0,0.5,0],[0,0.75,0],[1,0.25,0],[1,0.5,0],[1,0.75,0]];outlineConnect=0;fontColor=#232F3E;gradientColor=none;gradientDirection=north;fillColor=#68B92E;strokeColor=#ffffff;dashed=0;verticalLabelPosition=bottom;verticalAlign=top;align=center;html=1;fontSize=12;fontStyle=0;aspect=fixed;shape=mxgraph.aws4.resourceIcon;resIcon=mxgraph.aws4.iot_sitewise;rounded=1;strokeWidth=2;direction=west;" vertex="1" parent="1">
          <mxGeometry x="258" y="850" width="110" height="110" as="geometry" />
        </mxCell>
        <mxCell id="lge93pLNkwrm1VapkDIt-26" value="" style="edgeStyle=orthogonalEdgeStyle;rounded=0;orthogonalLoop=1;jettySize=auto;html=1;strokeColor=#000000;strokeWidth=2;" edge="1" parent="1" source="lge93pLNkwrm1VapkDIt-25" target="lge93pLNkwrm1VapkDIt-21">
          <mxGeometry relative="1" as="geometry" />
        </mxCell>
        <mxCell id="lge93pLNkwrm1VapkDIt-28" style="edgeStyle=orthogonalEdgeStyle;rounded=0;orthogonalLoop=1;jettySize=auto;html=1;entryX=0.5;entryY=1;entryDx=0;entryDy=0;strokeColor=#000000;strokeWidth=2;" edge="1" parent="1" source="lge93pLNkwrm1VapkDIt-25" target="lge93pLNkwrm1VapkDIt-27">
          <mxGeometry relative="1" as="geometry">
            <mxPoint x="560" y="350" as="sourcePoint" />
          </mxGeometry>
        </mxCell>
        <mxCell id="lge93pLNkwrm1VapkDIt-25" value="数据总线/Kafka" style="sketch=0;outlineConnect=0;fontColor=#232F3E;gradientColor=none;fillColor=#68B92E;strokeColor=none;dashed=0;verticalLabelPosition=bottom;verticalAlign=top;align=center;html=1;fontSize=12;fontStyle=0;aspect=fixed;pointerEvents=1;shape=mxgraph.aws4.iot_analytics_data_store;rounded=1;strokeWidth=1;direction=south;shadow=0;perimeterSpacing=0;" vertex="1" parent="1">
          <mxGeometry x="560" y="400" width="104.63" height="72.44" as="geometry" />
        </mxCell>
        <mxCell id="lge93pLNkwrm1VapkDIt-29" style="edgeStyle=orthogonalEdgeStyle;rounded=0;orthogonalLoop=1;jettySize=auto;html=1;strokeColor=#000000;strokeWidth=2;" edge="1" parent="1" source="lge93pLNkwrm1VapkDIt-27" target="lge93pLNkwrm1VapkDIt-1">
          <mxGeometry relative="1" as="geometry" />
        </mxCell>
        <mxCell id="lge93pLNkwrm1VapkDIt-27" value="" style="whiteSpace=wrap;html=1;aspect=fixed;strokeColor=#68B92E;fillColor=#68B92E;gradientColor=#68B92E;rounded=1;" vertex="1" parent="1">
          <mxGeometry x="425.67" y="320" width="70" height="70" as="geometry" />
        </mxCell>
        <mxCell id="lge93pLNkwrm1VapkDIt-32" style="edgeStyle=orthogonalEdgeStyle;rounded=0;orthogonalLoop=1;jettySize=auto;html=1;strokeColor=#000000;exitX=0;exitY=0.5;exitDx=0;exitDy=0;strokeWidth=2;" edge="1" parent="1" source="lge93pLNkwrm1VapkDIt-55" target="lge93pLNkwrm1VapkDIt-2">
          <mxGeometry relative="1" as="geometry">
            <mxPoint x="276" y="211.5" as="sourcePoint" />
          </mxGeometry>
        </mxCell>
        <mxCell id="lge93pLNkwrm1VapkDIt-33" value="" style="group" vertex="1" connectable="0" parent="1">
          <mxGeometry x="359" y="530" width="360" height="120" as="geometry" />
        </mxCell>
        <mxCell id="lge93pLNkwrm1VapkDIt-21" value="" style="rounded=1;whiteSpace=wrap;html=1;strokeColor=#68B92E;fillColor=none;gradientColor=#68B92E;dashed=1;strokeWidth=2;" vertex="1" parent="lge93pLNkwrm1VapkDIt-33">
          <mxGeometry width="360" height="120" as="geometry" />
        </mxCell>
        <mxCell id="lge93pLNkwrm1VapkDIt-16" value="" style="whiteSpace=wrap;html=1;aspect=fixed;strokeColor=#68B92E;fillColor=#68B92E;gradientColor=#68B92E;rounded=1;" vertex="1" parent="lge93pLNkwrm1VapkDIt-33">
          <mxGeometry x="50" y="20" width="80" height="80" as="geometry" />
        </mxCell>
        <mxCell id="lge93pLNkwrm1VapkDIt-17" value="" style="whiteSpace=wrap;html=1;aspect=fixed;strokeColor=#68B92E;fillColor=#68B92E;gradientColor=#68B92E;rounded=1;" vertex="1" parent="lge93pLNkwrm1VapkDIt-33">
          <mxGeometry x="230" y="20" width="80" height="80" as="geometry" />
        </mxCell>
        <mxCell id="lge93pLNkwrm1VapkDIt-36" value="" style="group" vertex="1" connectable="0" parent="1">
          <mxGeometry x="-180" y="530" width="349" height="120" as="geometry" />
        </mxCell>
        <mxCell id="lge93pLNkwrm1VapkDIt-37" value="" style="rounded=1;whiteSpace=wrap;html=1;strokeColor=#68B92E;fillColor=none;gradientColor=#68B92E;dashed=1;strokeWidth=2;" vertex="1" parent="lge93pLNkwrm1VapkDIt-36">
          <mxGeometry width="349" height="120" as="geometry" />
        </mxCell>
        <mxCell id="lge93pLNkwrm1VapkDIt-38" value="" style="whiteSpace=wrap;html=1;aspect=fixed;strokeColor=#68B92E;fillColor=#68B92E;gradientColor=#68B92E;rounded=1;" vertex="1" parent="lge93pLNkwrm1VapkDIt-36">
          <mxGeometry x="48.47222222222222" y="20" width="77.55555555555556" height="77.55555555555556" as="geometry" />
        </mxCell>
        <mxCell id="lge93pLNkwrm1VapkDIt-39" value="" style="whiteSpace=wrap;html=1;aspect=fixed;strokeColor=#68B92E;fillColor=#68B92E;gradientColor=#68B92E;rounded=1;" vertex="1" parent="lge93pLNkwrm1VapkDIt-36">
          <mxGeometry x="222.97222222222223" y="20" width="77.55555555555556" height="77.55555555555556" as="geometry" />
        </mxCell>
        <mxCell id="lge93pLNkwrm1VapkDIt-40" style="edgeStyle=orthogonalEdgeStyle;rounded=0;orthogonalLoop=1;jettySize=auto;html=1;strokeColor=#000000;strokeWidth=2;exitX=0.75;exitY=0;exitDx=0;exitDy=0;" edge="1" parent="1" source="lge93pLNkwrm1VapkDIt-37" target="lge93pLNkwrm1VapkDIt-2">
          <mxGeometry relative="1" as="geometry" />
        </mxCell>
        <mxCell id="lge93pLNkwrm1VapkDIt-44" style="edgeStyle=orthogonalEdgeStyle;rounded=0;orthogonalLoop=1;jettySize=auto;html=1;strokeColor=#000000;dashed=1;strokeWidth=2;" edge="1" parent="1" target="lge93pLNkwrm1VapkDIt-94">
          <mxGeometry relative="1" as="geometry">
            <mxPoint x="-45" y="530" as="sourcePoint" />
            <mxPoint x="-28.85572000000002" y="291.74" as="targetPoint" />
          </mxGeometry>
        </mxCell>
        <mxCell id="lge93pLNkwrm1VapkDIt-52" style="edgeStyle=orthogonalEdgeStyle;rounded=0;orthogonalLoop=1;jettySize=auto;html=1;entryX=0.5;entryY=1;entryDx=0;entryDy=0;strokeColor=#000000;strokeWidth=2;" edge="1" parent="1" source="lge93pLNkwrm1VapkDIt-45" target="lge93pLNkwrm1VapkDIt-48">
          <mxGeometry relative="1" as="geometry" />
        </mxCell>
        <mxCell id="lge93pLNkwrm1VapkDIt-63" style="edgeStyle=orthogonalEdgeStyle;rounded=0;orthogonalLoop=1;jettySize=auto;html=1;entryX=0.998;entryY=0.583;entryDx=0;entryDy=0;strokeColor=#000000;entryPerimeter=0;strokeWidth=2;" edge="1" parent="1" source="lge93pLNkwrm1VapkDIt-45" target="lge93pLNkwrm1VapkDIt-60">
          <mxGeometry relative="1" as="geometry" />
        </mxCell>
        <mxCell id="lge93pLNkwrm1VapkDIt-79" style="edgeStyle=orthogonalEdgeStyle;rounded=0;orthogonalLoop=1;jettySize=auto;html=1;entryX=1;entryY=0.5;entryDx=0;entryDy=0;strokeColor=#000000;strokeWidth=2;" edge="1" parent="1" source="lge93pLNkwrm1VapkDIt-45" target="lge93pLNkwrm1VapkDIt-76">
          <mxGeometry relative="1" as="geometry" />
        </mxCell>
        <mxCell id="lge93pLNkwrm1VapkDIt-93" style="edgeStyle=orthogonalEdgeStyle;rounded=0;orthogonalLoop=1;jettySize=auto;html=1;entryX=1;entryY=0.5;entryDx=0;entryDy=0;strokeColor=#000000;strokeWidth=2;" edge="1" parent="1" source="lge93pLNkwrm1VapkDIt-45" target="lge93pLNkwrm1VapkDIt-89">
          <mxGeometry relative="1" as="geometry" />
        </mxCell>
        <mxCell id="lge93pLNkwrm1VapkDIt-45" value="消息总线/RabbitMQ" style="sketch=0;outlineConnect=0;fontColor=#232F3E;gradientColor=none;fillColor=#68B92E;strokeColor=none;dashed=0;verticalLabelPosition=bottom;verticalAlign=top;align=center;html=1;fontSize=12;fontStyle=0;aspect=fixed;pointerEvents=1;shape=mxgraph.aws4.mq_broker;rounded=1;shadow=0;strokeWidth=1;" vertex="1" parent="1">
          <mxGeometry x="-428.28" y="414" width="116" height="116" as="geometry" />
        </mxCell>
        <mxCell id="lge93pLNkwrm1VapkDIt-46" style="rounded=0;orthogonalLoop=1;jettySize=auto;html=1;strokeColor=#000000;exitX=0;exitY=0.5;exitDx=0;exitDy=0;edgeStyle=orthogonalEdgeStyle;strokeWidth=2;" edge="1" parent="1" source="lge93pLNkwrm1VapkDIt-37" target="lge93pLNkwrm1VapkDIt-45">
          <mxGeometry relative="1" as="geometry" />
        </mxCell>
        <mxCell id="lge93pLNkwrm1VapkDIt-47" value="" style="group" vertex="1" connectable="0" parent="1">
          <mxGeometry x="-544.78" y="150" width="349" height="120" as="geometry" />
        </mxCell>
        <mxCell id="lge93pLNkwrm1VapkDIt-48" value="" style="rounded=1;whiteSpace=wrap;html=1;strokeColor=#68B92E;fillColor=none;gradientColor=#68B92E;dashed=1;strokeWidth=2;" vertex="1" parent="lge93pLNkwrm1VapkDIt-47">
          <mxGeometry width="349" height="120" as="geometry" />
        </mxCell>
        <mxCell id="lge93pLNkwrm1VapkDIt-49" value="" style="whiteSpace=wrap;html=1;aspect=fixed;strokeColor=#68B92E;fillColor=#68B92E;gradientColor=#68B92E;rounded=1;" vertex="1" parent="lge93pLNkwrm1VapkDIt-47">
          <mxGeometry x="48.47222222222222" y="20" width="77.55555555555556" height="77.55555555555556" as="geometry" />
        </mxCell>
        <mxCell id="lge93pLNkwrm1VapkDIt-50" value="" style="whiteSpace=wrap;html=1;aspect=fixed;strokeColor=#68B92E;fillColor=#68B92E;gradientColor=#68B92E;rounded=1;" vertex="1" parent="lge93pLNkwrm1VapkDIt-47">
          <mxGeometry x="222.97222222222223" y="20" width="77.55555555555556" height="77.55555555555556" as="geometry" />
        </mxCell>
        <mxCell id="lge93pLNkwrm1VapkDIt-54" style="edgeStyle=orthogonalEdgeStyle;rounded=0;orthogonalLoop=1;jettySize=auto;html=1;strokeColor=#000000;strokeWidth=2;" edge="1" parent="1" source="lge93pLNkwrm1VapkDIt-53" target="lge93pLNkwrm1VapkDIt-45">
          <mxGeometry relative="1" as="geometry" />
        </mxCell>
        <mxCell id="lge93pLNkwrm1VapkDIt-53" value="" style="whiteSpace=wrap;html=1;aspect=fixed;strokeColor=#68B92E;fillColor=#68B92E;gradientColor=#68B92E;rounded=1;" vertex="1" parent="1">
          <mxGeometry x="-179.99777777777786" y="320" width="77.55555555555556" height="77.55555555555556" as="geometry" />
        </mxCell>
        <mxCell id="lge93pLNkwrm1VapkDIt-55" value="" style="whiteSpace=wrap;html=1;aspect=fixed;strokeColor=#68B92E;fillColor=#68B92E;gradientColor=#68B92E;rounded=1;" vertex="1" parent="1">
          <mxGeometry x="258.00222222222214" y="172.5" width="77.55555555555556" height="77.55555555555556" as="geometry" />
        </mxCell>
        <mxCell id="lge93pLNkwrm1VapkDIt-58" style="edgeStyle=orthogonalEdgeStyle;rounded=0;orthogonalLoop=1;jettySize=auto;html=1;strokeColor=#000000;strokeWidth=2;" edge="1" parent="1" source="lge93pLNkwrm1VapkDIt-48" target="lge93pLNkwrm1VapkDIt-96">
          <mxGeometry relative="1" as="geometry">
            <mxPoint x="-364.14212" y="111.98000000000002" as="targetPoint" />
          </mxGeometry>
        </mxCell>
        <mxCell id="lge93pLNkwrm1VapkDIt-59" value="" style="group" vertex="1" connectable="0" parent="1">
          <mxGeometry x="-1010" y="570" width="349" height="120" as="geometry" />
        </mxCell>
        <mxCell id="lge93pLNkwrm1VapkDIt-60" value="" style="rounded=1;whiteSpace=wrap;html=1;strokeColor=#68B92E;fillColor=none;gradientColor=#68B92E;dashed=1;strokeWidth=2;" vertex="1" parent="lge93pLNkwrm1VapkDIt-59">
          <mxGeometry width="349" height="120" as="geometry" />
        </mxCell>
        <mxCell id="lge93pLNkwrm1VapkDIt-61" value="" style="whiteSpace=wrap;html=1;aspect=fixed;strokeColor=#68B92E;fillColor=#68B92E;gradientColor=#68B92E;rounded=1;" vertex="1" parent="lge93pLNkwrm1VapkDIt-59">
          <mxGeometry x="48.47222222222222" y="20" width="77.55555555555556" height="77.55555555555556" as="geometry" />
        </mxCell>
        <mxCell id="lge93pLNkwrm1VapkDIt-62" value="" style="whiteSpace=wrap;html=1;aspect=fixed;strokeColor=#68B92E;fillColor=#68B92E;gradientColor=#68B92E;rounded=1;" vertex="1" parent="lge93pLNkwrm1VapkDIt-59">
          <mxGeometry x="222.97222222222223" y="20" width="77.55555555555556" height="77.55555555555556" as="geometry" />
        </mxCell>
        <mxCell id="lge93pLNkwrm1VapkDIt-64" value="" style="endArrow=classic;html=1;rounded=0;strokeColor=#000000;exitX=0;exitY=0.5;exitDx=0;exitDy=0;edgeStyle=orthogonalEdgeStyle;entryX=0.5;entryY=1;entryDx=0;entryDy=0;entryPerimeter=0;strokeWidth=2;" edge="1" parent="1" source="lge93pLNkwrm1VapkDIt-60" target="lge93pLNkwrm1VapkDIt-65">
          <mxGeometry width="50" height="50" relative="1" as="geometry">
            <mxPoint x="-90" y="700" as="sourcePoint" />
            <mxPoint x="-1030" y="780" as="targetPoint" />
            <Array as="points">
              <mxPoint x="-1020" y="630" />
              <mxPoint x="-1020" y="730" />
              <mxPoint x="-840" y="730" />
            </Array>
          </mxGeometry>
        </mxCell>
        <mxCell id="lge93pLNkwrm1VapkDIt-85" style="edgeStyle=orthogonalEdgeStyle;rounded=0;orthogonalLoop=1;jettySize=auto;html=1;strokeColor=#000000;strokeWidth=2;" edge="1" parent="1" source="lge93pLNkwrm1VapkDIt-65" target="lge93pLNkwrm1VapkDIt-86">
          <mxGeometry relative="1" as="geometry">
            <mxPoint x="-928.75" y="1050" as="targetPoint" />
          </mxGeometry>
        </mxCell>
        <mxCell id="lge93pLNkwrm1VapkDIt-65" value="z" style="sketch=0;points=[[0,0,0],[0.25,0,0],[0.5,0,0],[0.75,0,0],[1,0,0],[0,1,0],[0.25,1,0],[0.5,1,0],[0.75,1,0],[1,1,0],[0,0.25,0],[0,0.5,0],[0,0.75,0],[1,0.25,0],[1,0.5,0],[1,0.75,0]];outlineConnect=0;fontColor=#232F3E;gradientColor=none;gradientDirection=north;fillColor=#68B92E;strokeColor=#ffffff;dashed=0;verticalLabelPosition=bottom;verticalAlign=top;align=center;html=1;fontSize=12;fontStyle=0;aspect=fixed;shape=mxgraph.aws4.resourceIcon;resIcon=mxgraph.aws4.iot_sitewise;rounded=1;strokeWidth=2;direction=west;" vertex="1" parent="1">
          <mxGeometry x="-895.5" y="850" width="110" height="110" as="geometry" />
        </mxCell>
        <mxCell id="lge93pLNkwrm1VapkDIt-75" value="" style="group" vertex="1" connectable="0" parent="1">
          <mxGeometry x="-1015" y="412" width="349" height="120" as="geometry" />
        </mxCell>
        <mxCell id="lge93pLNkwrm1VapkDIt-76" value="" style="rounded=1;whiteSpace=wrap;html=1;strokeColor=#68B92E;fillColor=none;gradientColor=#68B92E;dashed=1;strokeWidth=2;" vertex="1" parent="lge93pLNkwrm1VapkDIt-75">
          <mxGeometry width="349" height="120" as="geometry" />
        </mxCell>
        <mxCell id="lge93pLNkwrm1VapkDIt-77" value="" style="whiteSpace=wrap;html=1;aspect=fixed;strokeColor=#68B92E;fillColor=#68B92E;gradientColor=#68B92E;rounded=1;" vertex="1" parent="lge93pLNkwrm1VapkDIt-75">
          <mxGeometry x="48.47222222222222" y="20" width="77.55555555555556" height="77.55555555555556" as="geometry" />
        </mxCell>
        <mxCell id="lge93pLNkwrm1VapkDIt-78" value="" style="whiteSpace=wrap;html=1;aspect=fixed;strokeColor=#68B92E;fillColor=#68B92E;gradientColor=#68B92E;rounded=1;" vertex="1" parent="lge93pLNkwrm1VapkDIt-75">
          <mxGeometry x="222.97222222222223" y="20" width="77.55555555555556" height="77.55555555555556" as="geometry" />
        </mxCell>
        <mxCell id="lge93pLNkwrm1VapkDIt-80" style="edgeStyle=orthogonalEdgeStyle;rounded=0;orthogonalLoop=1;jettySize=auto;html=1;entryX=0.5;entryY=1;entryDx=0;entryDy=0;entryPerimeter=0;strokeColor=#000000;strokeWidth=2;exitX=0;exitY=0.5;exitDx=0;exitDy=0;" edge="1" parent="1" source="lge93pLNkwrm1VapkDIt-76" target="lge93pLNkwrm1VapkDIt-65">
          <mxGeometry relative="1" as="geometry">
            <Array as="points">
              <mxPoint x="-1080" y="472" />
              <mxPoint x="-1080" y="770" />
              <mxPoint x="-840" y="770" />
            </Array>
          </mxGeometry>
        </mxCell>
        <mxCell id="lge93pLNkwrm1VapkDIt-86" value="邮件" style="sketch=0;pointerEvents=1;shadow=0;dashed=0;html=1;strokeColor=none;fillColor=#68B92E;labelPosition=center;verticalLabelPosition=bottom;verticalAlign=top;outlineConnect=0;align=center;shape=mxgraph.office.users.mail_user;rounded=1;strokeWidth=1;" vertex="1" parent="1">
          <mxGeometry x="-884.5" y="1214.5" width="88" height="91" as="geometry" />
        </mxCell>
        <mxCell id="lge93pLNkwrm1VapkDIt-88" value="" style="group" vertex="1" connectable="0" parent="1">
          <mxGeometry x="-1010" y="260" width="349" height="120" as="geometry" />
        </mxCell>
        <mxCell id="lge93pLNkwrm1VapkDIt-89" value="" style="rounded=1;whiteSpace=wrap;html=1;strokeColor=#68B92E;fillColor=none;gradientColor=#68B92E;dashed=1;strokeWidth=2;" vertex="1" parent="lge93pLNkwrm1VapkDIt-88">
          <mxGeometry width="349" height="120" as="geometry" />
        </mxCell>
        <mxCell id="lge93pLNkwrm1VapkDIt-90" value="" style="whiteSpace=wrap;html=1;aspect=fixed;strokeColor=#68B92E;fillColor=#68B92E;gradientColor=#68B92E;rounded=1;" vertex="1" parent="lge93pLNkwrm1VapkDIt-88">
          <mxGeometry x="48.47222222222222" y="20" width="77.55555555555556" height="77.55555555555556" as="geometry" />
        </mxCell>
        <mxCell id="lge93pLNkwrm1VapkDIt-91" value="" style="whiteSpace=wrap;html=1;aspect=fixed;strokeColor=#68B92E;fillColor=#68B92E;gradientColor=#68B92E;rounded=1;" vertex="1" parent="lge93pLNkwrm1VapkDIt-88">
          <mxGeometry x="222.97222222222223" y="20" width="77.55555555555556" height="77.55555555555556" as="geometry" />
        </mxCell>
        <mxCell id="lge93pLNkwrm1VapkDIt-92" style="rounded=0;orthogonalLoop=1;jettySize=auto;html=1;strokeColor=#000000;strokeWidth=2;entryX=0.5;entryY=1;entryDx=0;entryDy=0;entryPerimeter=0;exitX=0;exitY=0.5;exitDx=0;exitDy=0;edgeStyle=orthogonalEdgeStyle;" edge="1" parent="1" source="lge93pLNkwrm1VapkDIt-89" target="lge93pLNkwrm1VapkDIt-65">
          <mxGeometry relative="1" as="geometry">
            <mxPoint x="-1090" y="360" as="targetPoint" />
            <Array as="points">
              <mxPoint x="-1120" y="320" />
              <mxPoint x="-1120" y="810" />
              <mxPoint x="-840" y="810" />
            </Array>
          </mxGeometry>
        </mxCell>
        <mxCell id="lge93pLNkwrm1VapkDIt-94" value="" style="sketch=0;outlineConnect=0;fontColor=#232F3E;gradientColor=none;fillColor=#68B92E;strokeColor=none;dashed=0;verticalLabelPosition=bottom;verticalAlign=top;align=center;html=1;fontSize=12;fontStyle=0;aspect=fixed;pointerEvents=1;shape=mxgraph.aws4.elasticache_for_redis;rounded=1;shadow=0;strokeWidth=1;" vertex="1" parent="1">
          <mxGeometry x="-90" y="171.5" width="90.43" height="80" as="geometry" />
        </mxCell>
        <mxCell id="lge93pLNkwrm1VapkDIt-103" style="edgeStyle=orthogonalEdgeStyle;rounded=0;orthogonalLoop=1;jettySize=auto;html=1;entryX=0.287;entryY=1.022;entryDx=0;entryDy=0;entryPerimeter=0;strokeColor=#000000;strokeWidth=2;" edge="1" parent="1" source="lge93pLNkwrm1VapkDIt-95" target="lge93pLNkwrm1VapkDIt-37">
          <mxGeometry relative="1" as="geometry" />
        </mxCell>
        <mxCell id="lge93pLNkwrm1VapkDIt-95" value="配置中心/&lt;span style=&quot;color: rgb(102, 102, 102); font-family: &amp;quot;Helvetica Neue&amp;quot;, STHeiti, &amp;quot;Microsoft YaHei&amp;quot;, Helvetica, Arial, sans-serif; font-size: 14px; text-align: start; background-color: rgb(255, 255, 255);&quot;&gt;Nacos&lt;/span&gt;" style="sketch=0;outlineConnect=0;fontColor=#232F3E;gradientColor=none;fillColor=#68B92E;strokeColor=none;dashed=0;verticalLabelPosition=bottom;verticalAlign=top;align=center;html=1;fontSize=12;fontStyle=0;aspect=fixed;pointerEvents=1;shape=mxgraph.aws4.table;rounded=1;shadow=0;strokeWidth=1;" vertex="1" parent="1">
          <mxGeometry x="-409.28" y="670" width="78" height="78" as="geometry" />
        </mxCell>
        <mxCell id="lge93pLNkwrm1VapkDIt-96" value="" style="sketch=0;outlineConnect=0;fontColor=#232F3E;gradientColor=none;fillColor=#68B92E;strokeColor=none;dashed=0;verticalLabelPosition=bottom;verticalAlign=top;align=center;html=1;fontSize=12;fontStyle=0;aspect=fixed;pointerEvents=1;shape=mxgraph.aws4.elasticache_for_redis;rounded=1;shadow=0;strokeWidth=1;" vertex="1" parent="1">
          <mxGeometry x="-415.48999999999995" y="10" width="90.43" height="80" as="geometry" />
        </mxCell>
        <mxCell id="lge93pLNkwrm1VapkDIt-97" style="edgeStyle=orthogonalEdgeStyle;rounded=0;orthogonalLoop=1;jettySize=auto;html=1;exitX=0;exitY=0.5;exitDx=0;exitDy=0;exitPerimeter=0;strokeWidth=2;" edge="1" parent="1" source="lge93pLNkwrm1VapkDIt-65" target="lge93pLNkwrm1VapkDIt-9">
          <mxGeometry relative="1" as="geometry">
            <mxPoint x="-640" y="1157.3600000000001" as="sourcePoint" />
            <mxPoint x="-386.2800000000002" y="959.9999999999999" as="targetPoint" />
          </mxGeometry>
        </mxCell>
        <mxCell id="lge93pLNkwrm1VapkDIt-102" value="" style="endArrow=classic;html=1;rounded=0;strokeColor=#000000;strokeWidth=2;entryX=0.25;entryY=1;entryDx=0;entryDy=0;edgeStyle=orthogonalEdgeStyle;" edge="1" parent="1" source="lge93pLNkwrm1VapkDIt-95" target="lge93pLNkwrm1VapkDIt-21">
          <mxGeometry width="50" height="50" relative="1" as="geometry">
            <mxPoint x="-370" y="670" as="sourcePoint" />
            <mxPoint x="-320" y="620" as="targetPoint" />
          </mxGeometry>
        </mxCell>
      </root>
    </mxGraphModel>
  </diagram>
</mxfile>
